<svg width="80" height="80" viewBox="0 0 80 80" fill="none" xmlns="http://www.w3.org/2000/svg">
<rect x="1" y="1" width="78" height="78" rx="3" fill="#FFEA79" stroke="#CCCCCC" stroke-width="2"/>
<path d="M39 66.0014H35V14.0014H39V66.0014Z" fill="#333333"/>
<path d="M35 62.0014H31V18.0014H35V62.0014Z" fill="#333333"/>
<path d="M31 58.0014H27V22.0014H31V58.0014Z" fill="#333333"/>
<path d="M27 54.0014H23V26.0014H27V54.0014Z" fill="#333333"/>
<path d="M23 50.0014H19V30.0014H23V50.0014Z" fill="#333333"/>
<path d="M15 42.0014H11V38.0014H15V42.0014Z" fill="#333333"/>
<path d="M19 46.0014H15V34.0014H19V46.0014Z" fill="#333333"/>
<path d="M15 50.0014H11V30.0014H15V50.0014Z" fill="#333333"/>
<path d="M19 50.0014H15V38.0014H19V50.0014Z" fill="#333333"/>
<path d="M38.9991 68.0007H37.9991V67.0007H38.9991V68.0007Z" fill="#333333"/>
<path d="M37.9991 68.0007H36.9991V67.0007H37.9991V68.0007Z" fill="#333333"/>
<path d="M38.9991 67.0007H37.9991V66.0007H38.9991V67.0007Z" fill="#333333"/>
<path d="M37.9991 67.0007H36.9991V66.0007H37.9991V67.0007Z" fill="#333333"/>
<path d="M42.9986 68H40.9986V40H42.9986V68Z" fill="#333333"/>
<path d="M40.9986 68L38.9991 68.0007L38.9986 40H40.9986V68Z" fill="#333333"/>
<path d="M42.9986 40H40.9986V12H42.9986V40Z" fill="#333333"/>
<path d="M40.9986 40H38.9986V12H40.9986V40Z" fill="#333333"/>
<path d="M61 54.0014H59V40.0014H61V54.0014Z" fill="#333333"/>
<path d="M59 54.0014H57V40.0014H59V54.0014Z" fill="#333333"/>
<path d="M61 40.0014H59V26.0014H61V40.0014Z" fill="#333333"/>
<path d="M59 40.0014H57V26.0014H59V40.0014Z" fill="#333333"/>
<path d="M53 50.0014H51V40.0014H53V50.0014Z" fill="#333333"/>
<path d="M51 50.0014H49V40.0014H51V50.0014Z" fill="#333333"/>
<path d="M53 40.0014H51V30.0014H53V40.0014Z" fill="#333333"/>
<path d="M51 40.0014H49V30.0014H51V40.0014Z" fill="#333333"/>
<path d="M69 58.0014H67V40.0014H69V58.0014Z" fill="#333333"/>
<path d="M67 58.0014H65V40.0014H67V58.0014Z" fill="#333333"/>
<path d="M69 40.0014H67V22.0014H69V40.0014Z" fill="#333333"/>
<path d="M67 40.0014H65V22.0014H67V40.0014Z" fill="#333333"/>
<path d="M34.9991 64.0007H33.9991V63.0007H34.9991V64.0007Z" fill="#333333"/>
<path d="M33.9991 64.0007H32.9991V63.0007H33.9991V64.0007Z" fill="#333333"/>
<path d="M34.9991 63.0007H33.9991V62.0007H34.9991V63.0007Z" fill="#333333"/>
<path d="M33.9991 63.0007H32.9991V62.0007H33.9991V63.0007Z" fill="#333333"/>
<path d="M30.9991 60.0007H29.9991V59.0007H30.9991V60.0007Z" fill="#333333"/>
<path d="M29.9991 60.0007H28.9991V59.0007H29.9991V60.0007Z" fill="#333333"/>
<path d="M30.9991 59.0007H29.9991V58.0007H30.9991V59.0007Z" fill="#333333"/>
<path d="M29.9991 59.0007H28.9991V58.0007H29.9991V59.0007Z" fill="#333333"/>
<path d="M26.9991 56.0007H25.9991V55.0007H26.9991V56.0007Z" fill="#333333"/>
<path d="M25.9991 56.0007H24.9991V55.0007H25.9991V56.0007Z" fill="#333333"/>
<path d="M26.9991 55.0007H25.9991V54.0007H26.9991V55.0007Z" fill="#333333"/>
<path d="M25.9991 55.0007H24.9991V54.0007H25.9991V55.0007Z" fill="#333333"/>
<path d="M22.9991 52.0007H21.9991V51.0007H22.9991V52.0007Z" fill="#333333"/>
<path d="M21.9991 52.0007H20.9991V51.0007H21.9991V52.0007Z" fill="#333333"/>
<path d="M22.9991 51.0007H21.9991V50.0007H22.9991V51.0007Z" fill="#333333"/>
<path d="M21.9991 51.0007H20.9991V50.0007H21.9991V51.0007Z" fill="#333333"/>
<path d="M18.9991 48.0007H17.9991V47.0007H18.9991V48.0007Z" fill="#333333"/>
<path d="M17.9991 48.0007H16.9991V47.0007H17.9991V48.0007Z" fill="#333333"/>
<path d="M18.9991 47.0007H17.9991V46.0007H18.9991V47.0007Z" fill="#333333"/>
<path d="M17.9991 47.0007H16.9991V46.0007H17.9991V47.0007Z" fill="#333333"/>
<path d="M14.9991 44.0007H13.9991V43.0007H14.9991V44.0007Z" fill="#333333"/>
<path d="M13.9991 44.0007H12.9991V43.0007H13.9991V44.0007Z" fill="#333333"/>
<path d="M14.9991 43.0007H13.9991V42.0007H14.9991V43.0007Z" fill="#333333"/>
<path d="M13.9991 43.0007H12.9991V42.0007H13.9991V43.0007Z" fill="#333333"/>
<path d="M14.9991 38.0007H13.9991V37.0007H14.9991V38.0007Z" fill="#333333"/>
<path d="M13.9991 38.0007H12.9991V37.0007H13.9991V38.0007Z" fill="#333333"/>
<path d="M14.9991 37.0007H13.9991V36.0007H14.9991V37.0007Z" fill="#333333"/>
<path d="M13.9991 37.0007H12.9991V36.0007H13.9991V37.0007Z" fill="#333333"/>
<path d="M18.9991 34.0007H17.9991V33.0007H18.9991V34.0007Z" fill="#333333"/>
<path d="M17.9991 34.0007H16.9991V33.0007H17.9991V34.0007Z" fill="#333333"/>
<path d="M18.9991 33.0007H17.9991V32.0007H18.9991V33.0007Z" fill="#333333"/>
<path d="M17.9991 33.0007H16.9991V32.0007H17.9991V33.0007Z" fill="#333333"/>
<path d="M18.9991 32.0007H17.9991V31.0007H18.9991V32.0007Z" fill="#333333"/>
<path d="M17.9991 32.0007H16.9991V31.0007H17.9991V32.0007Z" fill="#333333"/>
<path d="M18.9991 31.0007H17.9991V30.0007H18.9991V31.0007Z" fill="#333333"/>
<path d="M17.9991 31.0007H16.9991V30.0007H17.9991V31.0007Z" fill="#333333"/>
<path d="M16.9991 32.0007H15.9991V31.0007H16.9991V32.0007Z" fill="#333333"/>
<path d="M15.9991 32.0007H14.9991V31.0007H15.9991V32.0007Z" fill="#333333"/>
<path d="M16.9991 31.0007H15.9991V30.0007H16.9991V31.0007Z" fill="#333333"/>
<path d="M15.9991 31.0007H14.9991V30.0007H15.9991V31.0007Z" fill="#333333"/>
<path d="M16.9991 34.0007H15.9991V33.0007H16.9991V34.0007Z" fill="#333333"/>
<path d="M15.9991 34.0007H14.9991V33.0007H15.9991V34.0007Z" fill="#333333"/>
<path d="M16.9991 33.0007H15.9991V32.0007H16.9991V33.0007Z" fill="#333333"/>
<path d="M15.9991 33.0007H14.9991V32.0007H15.9991V33.0007Z" fill="#333333"/>
<path d="M22.9991 30.0007H21.9991V29.0007H22.9991V30.0007Z" fill="#333333"/>
<path d="M21.9991 30.0007H20.9991V29.0007H21.9991V30.0007Z" fill="#333333"/>
<path d="M22.9991 29.0007H21.9991V28.0007H22.9991V29.0007Z" fill="#333333"/>
<path d="M21.9991 29.0007H20.9991V28.0007H21.9991V29.0007Z" fill="#333333"/>
<path d="M26.9991 26.0007H25.9991V25.0007H26.9991V26.0007Z" fill="#333333"/>
<path d="M25.9991 26.0007H24.9991V25.0007H25.9991V26.0007Z" fill="#333333"/>
<path d="M26.9991 25.0007H25.9991V24.0007H26.9991V25.0007Z" fill="#333333"/>
<path d="M25.9991 25.0007H24.9991V24.0007H25.9991V25.0007Z" fill="#333333"/>
<path d="M30.9991 22.0007H29.9991V21.0007H30.9991V22.0007Z" fill="#333333"/>
<path d="M29.9991 22.0007H28.9991V21.0007H29.9991V22.0007Z" fill="#333333"/>
<path d="M30.9991 21.0007H29.9991V20.0007H30.9991V21.0007Z" fill="#333333"/>
<path d="M29.9991 21.0007H28.9991V20.0007H29.9991V21.0007Z" fill="#333333"/>
<path d="M34.9991 18.0007H33.9991V17.0007H34.9991V18.0007Z" fill="#333333"/>
<path d="M33.9991 18.0007H32.9991V17.0007H33.9991V18.0007Z" fill="#333333"/>
<path d="M34.9991 17.0007H33.9991V16.0007H34.9991V17.0007Z" fill="#333333"/>
<path d="M33.9991 17.0007H32.9991V16.0007H33.9991V17.0007Z" fill="#333333"/>
<path d="M57 26.0014H55V24.0014H57V26.0014Z" fill="#333333"/>
<path d="M55 26.0014H53V24.0014H55V26.0014Z" fill="#333333"/>
<path d="M57 24.0014H55V22.0014H57V24.0014Z" fill="#333333"/>
<path d="M55 24.0014H53V22.0014H55V24.0014Z" fill="#333333"/>
<path d="M59 28.0014H57V26.0014H59V28.0014Z" fill="#333333"/>
<path d="M57 28.0014H55V26.0014H57V28.0014Z" fill="#333333"/>
<path d="M59 26.0014H57V24.0014H59V26.0014Z" fill="#333333"/>
<path d="M57 26.0014H55V24.0014H57V26.0014Z" fill="#333333"/>
<path d="M65 62.0014H63V60.0014H65V62.0014Z" fill="#333333"/>
<path d="M63 62.0014H61V60.0014H63V62.0014Z" fill="#333333"/>
<path d="M65 60.0014H63V58.0014H65V60.0014Z" fill="#333333"/>
<path d="M63 60.0014H61V58.0014H63V60.0014Z" fill="#333333"/>
<path d="M67 60.0014H65V58.0014H67V60.0014Z" fill="#333333"/>
<path d="M65 60.0014H63V58.0014H65V60.0014Z" fill="#333333"/>
<path d="M67 58.0014H65V56.0014H67V58.0014Z" fill="#333333"/>
<path d="M65 58.0014H63V56.0014H65V58.0014Z" fill="#333333"/>
<path d="M59 56.0014H57V54.0014H59V56.0014Z" fill="#333333"/>
<path d="M57 56.0014H55V54.0014H57V56.0014Z" fill="#333333"/>
<path d="M59 54.0014H57V52.0014H59V54.0014Z" fill="#333333"/>
<path d="M57 54.0014H55V52.0014H57V54.0014Z" fill="#333333"/>
<path d="M51 52.0014H49V50.0014H51V52.0014Z" fill="#333333"/>
<path d="M49 52.0014H47V50.0014H49V52.0014Z" fill="#333333"/>
<path d="M51 50.0014H49V48.0014H51V50.0014Z" fill="#333333"/>
<path d="M49 50.0014H47V48.0014H49V50.0014Z" fill="#333333"/>
<path d="M49 54.0014H47V52.0014H49V54.0014Z" fill="#333333"/>
<path d="M47 54.0014H45V52.0014H47V54.0014Z" fill="#333333"/>
<path d="M49 52.0014H47V50.0014H49V52.0014Z" fill="#333333"/>
<path d="M47 52.0014H45V50.0014H47V52.0014Z" fill="#333333"/>
<path d="M51 32.0014H49V30.0014H51V32.0014Z" fill="#333333"/>
<path d="M49 32.0014H47V30.0014H49V32.0014Z" fill="#333333"/>
<path d="M51 30.0014H49V28.0014H51V30.0014Z" fill="#333333"/>
<path d="M49 30.0014H47V28.0014H49V30.0014Z" fill="#333333"/>
<path d="M49 30.0014H47V28.0014H49V30.0014Z" fill="#333333"/>
<path d="M47 30.0014H45V28.0014H47V30.0014Z" fill="#333333"/>
<path d="M49 28.0014H47V26.0014H49V28.0014Z" fill="#333333"/>
<path d="M47 28.0014H45V26.0014H47V28.0014Z" fill="#333333"/>
<path d="M63 64.0014H61V62.0014H63V64.0014Z" fill="#333333"/>
<path d="M61 64.0014H59V62.0014H61V64.0014Z" fill="#333333"/>
<path d="M63 62.0014H61V60.0014H63V62.0014Z" fill="#333333"/>
<path d="M61 62.0014H59V60.0014H61V62.0014Z" fill="#333333"/>
<path d="M61 66.0014H59V64.0014H61V66.0014Z" fill="#333333"/>
<path d="M59 66.0014H57V64.0014H59V66.0014Z" fill="#333333"/>
<path d="M61 64.0014H59V62.0014H61V64.0014Z" fill="#333333"/>
<path d="M59 64.0014H57V62.0014H59V64.0014Z" fill="#333333"/>
<path d="M65 22.0014H63V20.0014H65V22.0014Z" fill="#333333"/>
<path d="M63 22.0014H61V20.0014H63V22.0014Z" fill="#333333"/>
<path d="M65 20.0014H63V18.0014H65V20.0014Z" fill="#333333"/>
<path d="M63 20.0014H61V18.0014H63V20.0014Z" fill="#333333"/>
<path d="M67 24.0014H65V22.0014H67V24.0014Z" fill="#333333"/>
<path d="M65 24.0014H63V22.0014H65V24.0014Z" fill="#333333"/>
<path d="M67 22.0014H65V20.0014H67V22.0014Z" fill="#333333"/>
<path d="M65 22.0014H63V20.0014H65V22.0014Z" fill="#333333"/>
<path d="M63 20.0014H61V18.0014H63V20.0014Z" fill="#333333"/>
<path d="M61 20.0014H59V18.0014H61V20.0014Z" fill="#333333"/>
<path d="M63 18.0014H61V16.0014H63V18.0014Z" fill="#333333"/>
<path d="M61 18.0014H59V16.0014H61V18.0014Z" fill="#333333"/>
<path d="M61 18.0014H59V16.0014H61V18.0014Z" fill="#333333"/>
<path d="M59 18.0014H57V16.0014H59V18.0014Z" fill="#333333"/>
<path d="M61 16.0014H59V14.0014H61V16.0014Z" fill="#333333"/>
<path d="M59 16.0014H57V14.0014H59V16.0014Z" fill="#333333"/>
<path d="M57 58.0014H55V56.0014H57V58.0014Z" fill="#333333"/>
<path d="M55 58.0014H53V56.0014H55V58.0014Z" fill="#333333"/>
<path d="M57 56.0014H55V54.0014H57V56.0014Z" fill="#333333"/>
<path d="M55 56.0014H53V54.0014H55V56.0014Z" fill="#333333"/>
<path d="M55 60.0014H53V58.0014H55V60.0014Z" fill="#333333"/>
<path d="M53 60.0014H51V58.0014H53V60.0014Z" fill="#333333"/>
<path d="M55 58.0014H53V56.0014H55V58.0014Z" fill="#333333"/>
<path d="M53 58.0014H51V56.0014H53V58.0014Z" fill="#333333"/>
<path d="M55 24.0014H53V22.0014H55V24.0014Z" fill="#333333"/>
<path d="M53 24.0014H51V22.0014H53V24.0014Z" fill="#333333"/>
<path d="M55 22.0014H53V20.0014H55V22.0014Z" fill="#333333"/>
<path d="M53 22.0014H51V20.0014H53V22.0014Z" fill="#333333"/>
<path d="M38.9991 14.0007H37.9991V13.0007H38.9991V14.0007Z" fill="#333333"/>
<path d="M37.9991 14.0007H36.9991V13.0007H37.9991V14.0007Z" fill="#333333"/>
<path d="M38.9991 13.0007H37.9991V12.0007L38.9986 12L38.9991 13.0007Z" fill="#333333"/>
<path d="M37.9991 13.0007H36.9991V12.0007H37.9991V13.0007Z" fill="#333333"/>
<rect x="7.70711" y="14.0703" width="9" height="82.4124" transform="rotate(-45 7.70711 14.0703)" fill="#FFEA79" stroke="#333333"/>
<rect x="10.4844" y="16.1484" width="8.00191" height="76.6313" transform="rotate(-45 10.4844 16.1484)" fill="#FFEA79"/>
<rect x="14.0703" y="72.3437" width="9" height="82.4124" transform="rotate(-135 14.0703 72.3437)" fill="#FFEA79" stroke="#333333"/>
<rect x="11" y="16.6602" width="8.00191" height="76.6313" transform="rotate(-45 11 16.6602)" fill="#FFEA79"/>
</svg>
