<svg width="80" height="80" viewBox="0 0 80 80" fill="none" xmlns="http://www.w3.org/2000/svg">
<rect x="1" y="1" width="78" height="78" rx="3" fill="#FFEA79" stroke="#CCCCCC" stroke-width="2"/>
<rect x="39" y="66" width="4" height="52" transform="rotate(-180 39 66)" fill="#333333"/>
<rect x="35" y="62" width="4" height="44" transform="rotate(-180 35 62)" fill="#333333"/>
<rect x="31" y="58" width="4" height="36" transform="rotate(-180 31 58)" fill="#333333"/>
<rect x="27" y="54" width="4" height="28" transform="rotate(-180 27 54)" fill="#333333"/>
<rect x="23" y="50" width="4" height="20" transform="rotate(-180 23 50)" fill="#333333"/>
<rect x="15" y="42" width="4" height="4" transform="rotate(-180 15 42)" fill="#333333"/>
<rect x="19" y="46" width="4" height="12" transform="rotate(-180 19 46)" fill="#333333"/>
<rect x="15" y="50" width="4" height="20" transform="rotate(-180 15 50)" fill="#333333"/>
<rect x="19" y="50" width="4" height="12" transform="rotate(-180 19 50)" fill="#333333"/>
<rect x="39" y="68" width="1" height="1" transform="rotate(-180 39 68)" fill="#333333"/>
<rect x="38" y="68" width="1" height="1" transform="rotate(-180 38 68)" fill="#333333"/>
<rect x="39" y="67" width="1" height="1" transform="rotate(-180 39 67)" fill="#333333"/>
<rect x="38" y="67" width="1" height="1" transform="rotate(-180 38 67)" fill="#333333"/>
<rect x="42.998" y="68" width="2" height="28" transform="rotate(-180 42.998 68)" fill="#333333"/>
<rect x="40.998" y="68" width="2" height="28" transform="rotate(-180 40.998 68)" fill="#333333"/>
<rect x="42.998" y="40" width="2" height="28" transform="rotate(-180 42.998 40)" fill="#333333"/>
<rect x="40.998" y="40" width="2" height="28" transform="rotate(-180 40.998 40)" fill="#333333"/>
<rect x="61" y="54" width="2" height="14" transform="rotate(-180 61 54)" fill="#333333"/>
<rect x="59" y="54" width="2" height="14" transform="rotate(-180 59 54)" fill="#333333"/>
<rect x="61" y="40" width="2" height="14" transform="rotate(-180 61 40)" fill="#333333"/>
<rect x="59" y="40" width="2" height="14" transform="rotate(-180 59 40)" fill="#333333"/>
<rect x="53" y="50" width="2" height="10" transform="rotate(-180 53 50)" fill="#333333"/>
<rect x="51" y="50" width="2" height="10" transform="rotate(-180 51 50)" fill="#333333"/>
<rect x="53" y="40" width="2" height="10" transform="rotate(-180 53 40)" fill="#333333"/>
<rect x="51" y="40" width="2" height="10" transform="rotate(-180 51 40)" fill="#333333"/>
<rect x="69" y="58" width="2" height="18" transform="rotate(-180 69 58)" fill="#333333"/>
<rect x="67" y="58" width="2" height="18" transform="rotate(-180 67 58)" fill="#333333"/>
<rect x="69" y="40" width="2" height="18" transform="rotate(-180 69 40)" fill="#333333"/>
<rect x="67" y="40" width="2" height="18" transform="rotate(-180 67 40)" fill="#333333"/>
<rect x="35" y="64" width="1" height="1" transform="rotate(-180 35 64)" fill="#333333"/>
<rect x="34" y="64" width="1" height="1" transform="rotate(-180 34 64)" fill="#333333"/>
<rect x="35" y="63" width="1" height="1" transform="rotate(-180 35 63)" fill="#333333"/>
<rect x="34" y="63" width="1" height="1" transform="rotate(-180 34 63)" fill="#333333"/>
<rect x="31" y="60" width="1" height="1" transform="rotate(-180 31 60)" fill="#333333"/>
<rect x="30" y="60" width="1" height="1" transform="rotate(-180 30 60)" fill="#333333"/>
<rect x="31" y="59" width="1" height="1" transform="rotate(-180 31 59)" fill="#333333"/>
<rect x="30" y="59" width="1" height="1" transform="rotate(-180 30 59)" fill="#333333"/>
<rect x="27" y="56" width="1" height="1" transform="rotate(-180 27 56)" fill="#333333"/>
<rect x="26" y="56" width="1" height="1" transform="rotate(-180 26 56)" fill="#333333"/>
<rect x="27" y="55" width="1" height="1" transform="rotate(-180 27 55)" fill="#333333"/>
<rect x="26" y="55" width="1" height="1" transform="rotate(-180 26 55)" fill="#333333"/>
<rect x="23" y="52" width="1" height="1" transform="rotate(-180 23 52)" fill="#333333"/>
<rect x="22" y="52" width="1" height="1" transform="rotate(-180 22 52)" fill="#333333"/>
<rect x="23" y="51" width="1" height="1" transform="rotate(-180 23 51)" fill="#333333"/>
<rect x="22" y="51" width="1" height="1" transform="rotate(-180 22 51)" fill="#333333"/>
<rect x="19" y="48" width="1" height="1" transform="rotate(-180 19 48)" fill="#333333"/>
<rect x="18" y="48" width="1" height="1" transform="rotate(-180 18 48)" fill="#333333"/>
<rect x="19" y="47" width="1" height="1" transform="rotate(-180 19 47)" fill="#333333"/>
<rect x="18" y="47" width="1" height="1" transform="rotate(-180 18 47)" fill="#333333"/>
<rect x="15" y="44" width="1" height="1" transform="rotate(-180 15 44)" fill="#333333"/>
<rect x="14" y="44" width="1" height="1" transform="rotate(-180 14 44)" fill="#333333"/>
<rect x="15" y="43" width="1" height="1" transform="rotate(-180 15 43)" fill="#333333"/>
<rect x="14" y="43" width="1" height="1" transform="rotate(-180 14 43)" fill="#333333"/>
<rect x="15" y="38" width="1" height="1" transform="rotate(-180 15 38)" fill="#333333"/>
<rect x="14" y="38" width="1" height="1" transform="rotate(-180 14 38)" fill="#333333"/>
<rect x="15" y="37" width="1" height="1" transform="rotate(-180 15 37)" fill="#333333"/>
<rect x="14" y="37" width="1" height="1" transform="rotate(-180 14 37)" fill="#333333"/>
<rect x="19" y="34" width="1" height="1" transform="rotate(-180 19 34)" fill="#333333"/>
<rect x="18" y="34" width="1" height="1" transform="rotate(-180 18 34)" fill="#333333"/>
<rect x="19" y="33" width="1" height="1" transform="rotate(-180 19 33)" fill="#333333"/>
<rect x="18" y="33" width="1" height="1" transform="rotate(-180 18 33)" fill="#333333"/>
<rect x="19" y="32" width="1" height="1" transform="rotate(-180 19 32)" fill="#333333"/>
<rect x="18" y="32" width="1" height="1" transform="rotate(-180 18 32)" fill="#333333"/>
<rect x="19" y="31" width="1" height="1" transform="rotate(-180 19 31)" fill="#333333"/>
<rect x="18" y="31" width="1" height="1" transform="rotate(-180 18 31)" fill="#333333"/>
<rect x="17" y="32" width="1" height="1" transform="rotate(-180 17 32)" fill="#333333"/>
<rect x="16" y="32" width="1" height="1" transform="rotate(-180 16 32)" fill="#333333"/>
<rect x="17" y="31" width="1" height="1" transform="rotate(-180 17 31)" fill="#333333"/>
<rect x="16" y="31" width="1" height="1" transform="rotate(-180 16 31)" fill="#333333"/>
<rect x="17" y="34" width="1" height="1" transform="rotate(-180 17 34)" fill="#333333"/>
<rect x="16" y="34" width="1" height="1" transform="rotate(-180 16 34)" fill="#333333"/>
<rect x="17" y="33" width="1" height="1" transform="rotate(-180 17 33)" fill="#333333"/>
<rect x="16" y="33" width="1" height="1" transform="rotate(-180 16 33)" fill="#333333"/>
<rect x="23" y="30" width="1" height="1" transform="rotate(-180 23 30)" fill="#333333"/>
<rect x="22" y="30" width="1" height="1" transform="rotate(-180 22 30)" fill="#333333"/>
<rect x="23" y="29" width="1" height="1" transform="rotate(-180 23 29)" fill="#333333"/>
<rect x="22" y="29" width="1" height="1" transform="rotate(-180 22 29)" fill="#333333"/>
<rect x="27" y="26" width="1" height="1" transform="rotate(-180 27 26)" fill="#333333"/>
<rect x="26" y="26" width="1" height="1" transform="rotate(-180 26 26)" fill="#333333"/>
<rect x="27" y="25" width="1" height="1" transform="rotate(-180 27 25)" fill="#333333"/>
<rect x="26" y="25" width="1" height="1" transform="rotate(-180 26 25)" fill="#333333"/>
<rect x="31" y="22" width="1" height="1" transform="rotate(-180 31 22)" fill="#333333"/>
<rect x="30" y="22" width="1" height="1" transform="rotate(-180 30 22)" fill="#333333"/>
<rect x="31" y="21" width="1" height="1" transform="rotate(-180 31 21)" fill="#333333"/>
<rect x="30" y="21" width="1" height="1" transform="rotate(-180 30 21)" fill="#333333"/>
<rect x="35" y="18" width="1" height="1" transform="rotate(-180 35 18)" fill="#333333"/>
<rect x="34" y="18" width="1" height="1" transform="rotate(-180 34 18)" fill="#333333"/>
<rect x="35" y="17" width="1" height="1" transform="rotate(-180 35 17)" fill="#333333"/>
<rect x="34" y="17" width="1" height="1" transform="rotate(-180 34 17)" fill="#333333"/>
<rect x="57" y="26" width="2" height="2" transform="rotate(-180 57 26)" fill="#333333"/>
<rect x="55" y="26" width="2" height="2" transform="rotate(-180 55 26)" fill="#333333"/>
<rect x="57" y="24" width="2" height="2" transform="rotate(-180 57 24)" fill="#333333"/>
<rect x="55" y="24" width="2" height="2" transform="rotate(-180 55 24)" fill="#333333"/>
<rect x="59" y="28" width="2" height="2" transform="rotate(-180 59 28)" fill="#333333"/>
<rect x="57" y="28" width="2" height="2" transform="rotate(-180 57 28)" fill="#333333"/>
<rect x="59" y="26" width="2" height="2" transform="rotate(-180 59 26)" fill="#333333"/>
<rect x="57" y="26" width="2" height="2" transform="rotate(-180 57 26)" fill="#333333"/>
<rect x="65" y="62" width="2" height="2" transform="rotate(-180 65 62)" fill="#333333"/>
<rect x="63" y="62" width="2" height="2" transform="rotate(-180 63 62)" fill="#333333"/>
<rect x="65" y="60" width="2" height="2" transform="rotate(-180 65 60)" fill="#333333"/>
<rect x="63" y="60" width="2" height="2" transform="rotate(-180 63 60)" fill="#333333"/>
<rect x="67" y="60" width="2" height="2" transform="rotate(-180 67 60)" fill="#333333"/>
<rect x="65" y="60" width="2" height="2" transform="rotate(-180 65 60)" fill="#333333"/>
<rect x="67" y="58" width="2" height="2" transform="rotate(-180 67 58)" fill="#333333"/>
<rect x="65" y="58" width="2" height="2" transform="rotate(-180 65 58)" fill="#333333"/>
<rect x="59" y="56" width="2" height="2" transform="rotate(-180 59 56)" fill="#333333"/>
<rect x="57" y="56" width="2" height="2" transform="rotate(-180 57 56)" fill="#333333"/>
<rect x="59" y="54" width="2" height="2" transform="rotate(-180 59 54)" fill="#333333"/>
<rect x="57" y="54" width="2" height="2" transform="rotate(-180 57 54)" fill="#333333"/>
<rect x="51" y="52" width="2" height="2" transform="rotate(-180 51 52)" fill="#333333"/>
<rect x="49" y="52" width="2" height="2" transform="rotate(-180 49 52)" fill="#333333"/>
<rect x="51" y="50" width="2" height="2" transform="rotate(-180 51 50)" fill="#333333"/>
<rect x="49" y="50" width="2" height="2" transform="rotate(-180 49 50)" fill="#333333"/>
<rect x="49" y="54" width="2" height="2" transform="rotate(-180 49 54)" fill="#333333"/>
<rect x="47" y="54" width="2" height="2" transform="rotate(-180 47 54)" fill="#333333"/>
<rect x="49" y="52" width="2" height="2" transform="rotate(-180 49 52)" fill="#333333"/>
<rect x="47" y="52" width="2" height="2" transform="rotate(-180 47 52)" fill="#333333"/>
<rect x="51" y="32" width="2" height="2" transform="rotate(-180 51 32)" fill="#333333"/>
<rect x="49" y="32" width="2" height="2" transform="rotate(-180 49 32)" fill="#333333"/>
<rect x="51" y="30" width="2" height="2" transform="rotate(-180 51 30)" fill="#333333"/>
<rect x="49" y="30" width="2" height="2" transform="rotate(-180 49 30)" fill="#333333"/>
<rect x="49" y="30" width="2" height="2" transform="rotate(-180 49 30)" fill="#333333"/>
<rect x="47" y="30" width="2" height="2" transform="rotate(-180 47 30)" fill="#333333"/>
<rect x="49" y="28" width="2" height="2" transform="rotate(-180 49 28)" fill="#333333"/>
<rect x="47" y="28" width="2" height="2" transform="rotate(-180 47 28)" fill="#333333"/>
<rect x="63" y="64" width="2" height="2" transform="rotate(-180 63 64)" fill="#333333"/>
<rect x="61" y="64" width="2" height="2" transform="rotate(-180 61 64)" fill="#333333"/>
<rect x="63" y="62" width="2" height="2" transform="rotate(-180 63 62)" fill="#333333"/>
<rect x="61" y="62" width="2" height="2" transform="rotate(-180 61 62)" fill="#333333"/>
<rect x="61" y="66" width="2" height="2" transform="rotate(-180 61 66)" fill="#333333"/>
<rect x="59" y="66" width="2" height="2" transform="rotate(-180 59 66)" fill="#333333"/>
<rect x="61" y="64" width="2" height="2" transform="rotate(-180 61 64)" fill="#333333"/>
<rect x="59" y="64" width="2" height="2" transform="rotate(-180 59 64)" fill="#333333"/>
<rect x="65" y="22" width="2" height="2" transform="rotate(-180 65 22)" fill="#333333"/>
<rect x="63" y="22" width="2" height="2" transform="rotate(-180 63 22)" fill="#333333"/>
<rect x="65" y="20" width="2" height="2" transform="rotate(-180 65 20)" fill="#333333"/>
<rect x="63" y="20" width="2" height="2" transform="rotate(-180 63 20)" fill="#333333"/>
<rect x="67" y="24" width="2" height="2" transform="rotate(-180 67 24)" fill="#333333"/>
<rect x="65" y="24" width="2" height="2" transform="rotate(-180 65 24)" fill="#333333"/>
<rect x="67" y="22" width="2" height="2" transform="rotate(-180 67 22)" fill="#333333"/>
<rect x="65" y="22" width="2" height="2" transform="rotate(-180 65 22)" fill="#333333"/>
<rect x="63" y="20" width="2" height="2" transform="rotate(-180 63 20)" fill="#333333"/>
<rect x="61" y="20" width="2" height="2" transform="rotate(-180 61 20)" fill="#333333"/>
<rect x="63" y="18" width="2" height="2" transform="rotate(-180 63 18)" fill="#333333"/>
<rect x="61" y="18" width="2" height="2" transform="rotate(-180 61 18)" fill="#333333"/>
<rect x="61" y="18" width="2" height="2" transform="rotate(-180 61 18)" fill="#333333"/>
<rect x="59" y="18" width="2" height="2" transform="rotate(-180 59 18)" fill="#333333"/>
<rect x="61" y="16" width="2" height="2" transform="rotate(-180 61 16)" fill="#333333"/>
<rect x="59" y="16" width="2" height="2" transform="rotate(-180 59 16)" fill="#333333"/>
<rect x="57" y="58" width="2" height="2" transform="rotate(-180 57 58)" fill="#333333"/>
<rect x="55" y="58" width="2" height="2" transform="rotate(-180 55 58)" fill="#333333"/>
<rect x="57" y="56" width="2" height="2" transform="rotate(-180 57 56)" fill="#333333"/>
<rect x="55" y="56" width="2" height="2" transform="rotate(-180 55 56)" fill="#333333"/>
<rect x="55" y="60" width="2" height="2" transform="rotate(-180 55 60)" fill="#333333"/>
<rect x="53" y="60" width="2" height="2" transform="rotate(-180 53 60)" fill="#333333"/>
<rect x="55" y="58" width="2" height="2" transform="rotate(-180 55 58)" fill="#333333"/>
<rect x="53" y="58" width="2" height="2" transform="rotate(-180 53 58)" fill="#333333"/>
<rect x="55" y="24" width="2" height="2" transform="rotate(-180 55 24)" fill="#333333"/>
<rect x="53" y="24" width="2" height="2" transform="rotate(-180 53 24)" fill="#333333"/>
<rect x="55" y="22" width="2" height="2" transform="rotate(-180 55 22)" fill="#333333"/>
<rect x="53" y="22" width="2" height="2" transform="rotate(-180 53 22)" fill="#333333"/>
<rect x="39" y="14" width="1" height="1" transform="rotate(-180 39 14)" fill="#333333"/>
<rect x="38" y="14" width="1" height="1" transform="rotate(-180 38 14)" fill="#333333"/>
<rect x="39" y="13" width="1" height="1" transform="rotate(-180 39 13)" fill="#333333"/>
<rect x="38" y="13" width="1" height="1" transform="rotate(-180 38 13)" fill="#333333"/>
</svg>
