<svg width="8740" height="1540" viewBox="0 0 8740 1540" fill="none" xmlns="http://www.w3.org/2000/svg">
<mask id="path-1-outside-1_1012_387" maskUnits="userSpaceOnUse" x="0" y="0" width="8740" height="1540" fill="black">
<rect fill="white" width="8740" height="1540"/>
<path d="M20 720V520H120V420H220V320H320V220H420V120H20V20H720V220H620V320H520V420H420V520H320V620H720V720H20ZM1120 120V20H1320V120H1120ZM920 720V620H1120V320H1020V220H1320V620H1520V720H920ZM1720 720V620H1920V120H1820V20H2120V620H2320V720H1720ZM2520 720V620H2420V20H2620V220H3020V320H3120V620H3020V720H2520ZM2620 620H2920V320H2620V620ZM3320 720V620H3220V320H3320V220H3820V320H3920V520H3420V620H3820V720H3320ZM3420 420H3720V320H3420V420ZM4320 320H4420V420H4320V720H4120V220H4320V320ZM4720 220V320H4420V220H4720ZM20 1520V820H720V920H220V1120H620V1220H220V1420H720V1520H20ZM920 1520V1420H1120V920H1020V820H1320V1420H1520V1520H920ZM1720 1520V1420H1620V1120H1720V1020H2220V1120H2320V1320H1820V1420H2220V1520H1720ZM1820 1220H2120V1120H1820V1220ZM2520 1520V1420H2420V1120H2520V1020H3120V1120H2620V1420H3120V1520H2520ZM3520 1520V1120H3320V1020H3520V820H3720V1020H3920V1120H3720V1520H3520ZM4320 1120H4420V1220H4320V1520H4120V1020H4320V1120ZM4720 1020V1120H4420V1020H4720ZM4920 1520V1420H4820V1120H4920V1020H5420V1120H5520V1420H5420V1520H4920ZM5020 1420H5320V1120H5020V1420ZM5620 1520V1020H6220V1120H6320V1520H6120V1120H5820V1520H5620ZM6720 920V820H6920V920H6720ZM6520 1520V1420H6720V1120H6620V1020H6920V1420H7120V1520H6520ZM7320 1520V1420H7220V1120H7320V1020H7920V1120H7420V1420H7920V1520H7320ZM8020 1520V1420H8520V1320H8120V1220H8020V1120H8120V1020H8620V1120H8220V1220H8620V1320H8720V1420H8620V1520H8020Z"/>
</mask>
<path d="M20 720V520H120V420H220V320H320V220H420V120H20V20H720V220H620V320H520V420H420V520H320V620H720V720H20ZM1120 120V20H1320V120H1120ZM920 720V620H1120V320H1020V220H1320V620H1520V720H920ZM1720 720V620H1920V120H1820V20H2120V620H2320V720H1720ZM2520 720V620H2420V20H2620V220H3020V320H3120V620H3020V720H2520ZM2620 620H2920V320H2620V620ZM3320 720V620H3220V320H3320V220H3820V320H3920V520H3420V620H3820V720H3320ZM3420 420H3720V320H3420V420ZM4320 320H4420V420H4320V720H4120V220H4320V320ZM4720 220V320H4420V220H4720ZM20 1520V820H720V920H220V1120H620V1220H220V1420H720V1520H20ZM920 1520V1420H1120V920H1020V820H1320V1420H1520V1520H920ZM1720 1520V1420H1620V1120H1720V1020H2220V1120H2320V1320H1820V1420H2220V1520H1720ZM1820 1220H2120V1120H1820V1220ZM2520 1520V1420H2420V1120H2520V1020H3120V1120H2620V1420H3120V1520H2520ZM3520 1520V1120H3320V1020H3520V820H3720V1020H3920V1120H3720V1520H3520ZM4320 1120H4420V1220H4320V1520H4120V1020H4320V1120ZM4720 1020V1120H4420V1020H4720ZM4920 1520V1420H4820V1120H4920V1020H5420V1120H5520V1420H5420V1520H4920ZM5020 1420H5320V1120H5020V1420ZM5620 1520V1020H6220V1120H6320V1520H6120V1120H5820V1520H5620ZM6720 920V820H6920V920H6720ZM6520 1520V1420H6720V1120H6620V1020H6920V1420H7120V1520H6520ZM7320 1520V1420H7220V1120H7320V1020H7920V1120H7420V1420H7920V1520H7320ZM8020 1520V1420H8520V1320H8120V1220H8020V1120H8120V1020H8620V1120H8220V1220H8620V1320H8720V1420H8620V1520H8020Z" fill="#FFEA79"/>
<path d="M20 720H0V740H20V720ZM20 520V500H0V520H20ZM120 520V540H140V520H120ZM120 420V400H100V420H120ZM220 420V440H240V420H220ZM220 320V300H200V320H220ZM320 320V340H340V320H320ZM320 220V200H300V220H320ZM420 220V240H440V220H420ZM420 120H440V100H420V120ZM20 120H0V140H20V120ZM20 20V0H0V20H20ZM720 20H740V0H720V20ZM720 220V240H740V220H720ZM620 220V200H600V220H620ZM620 320V340H640V320H620ZM520 320V300H500V320H520ZM520 420V440H540V420H520ZM420 420V400H400V420H420ZM420 520V540H440V520H420ZM320 520V500H300V520H320ZM320 620H300V640H320V620ZM720 620H740V600H720V620ZM720 720V740H740V720H720ZM20 720H40V520H20H0V720H20ZM20 520V540H120V520V500H20V520ZM120 520H140V420H120H100V520H120ZM120 420V440H220V420V400H120V420ZM220 420H240V320H220H200V420H220ZM220 320V340H320V320V300H220V320ZM320 320H340V220H320H300V320H320ZM320 220V240H420V220V200H320V220ZM420 220H440V120H420H400V220H420ZM420 120V100H20V120V140H420V120ZM20 120H40V20H20H0V120H20ZM20 20V40H720V20V0H20V20ZM720 20H700V220H720H740V20H720ZM720 220V200H620V220V240H720V220ZM620 220H600V320H620H640V220H620ZM620 320V300H520V320V340H620V320ZM520 320H500V420H520H540V320H520ZM520 420V400H420V420V440H520V420ZM420 420H400V520H420H440V420H420ZM420 520V500H320V520V540H420V520ZM320 520H300V620H320H340V520H320ZM320 620V640H720V620V600H320V620ZM720 620H700V720H720H740V620H720ZM720 720V700H20V720V740H720V720ZM1120 120H1100V140H1120V120ZM1120 20V0H1100V20H1120ZM1320 20H1340V0H1320V20ZM1320 120V140H1340V120H1320ZM920 720H900V740H920V720ZM920 620V600H900V620H920ZM1120 620V640H1140V620H1120ZM1120 320H1140V300H1120V320ZM1020 320H1000V340H1020V320ZM1020 220V200H1000V220H1020ZM1320 220H1340V200H1320V220ZM1320 620H1300V640H1320V620ZM1520 620H1540V600H1520V620ZM1520 720V740H1540V720H1520ZM1120 120H1140V20H1120H1100V120H1120ZM1120 20V40H1320V20V0H1120V20ZM1320 20H1300V120H1320H1340V20H1320ZM1320 120V100H1120V120V140H1320V120ZM920 720H940V620H920H900V720H920ZM920 620V640H1120V620V600H920V620ZM1120 620H1140V320H1120H1100V620H1120ZM1120 320V300H1020V320V340H1120V320ZM1020 320H1040V220H1020H1000V320H1020ZM1020 220V240H1320V220V200H1020V220ZM1320 220H1300V620H1320H1340V220H1320ZM1320 620V640H1520V620V600H1320V620ZM1520 620H1500V720H1520H1540V620H1520ZM1520 720V700H920V720V740H1520V720ZM1720 720H1700V740H1720V720ZM1720 620V600H1700V620H1720ZM1920 620V640H1940V620H1920ZM1920 120H1940V100H1920V120ZM1820 120H1800V140H1820V120ZM1820 20V0H1800V20H1820ZM2120 20H2140V0H2120V20ZM2120 620H2100V640H2120V620ZM2320 620H2340V600H2320V620ZM2320 720V740H2340V720H2320ZM1720 720H1740V620H1720H1700V720H1720ZM1720 620V640H1920V620V600H1720V620ZM1920 620H1940V120H1920H1900V620H1920ZM1920 120V100H1820V120V140H1920V120ZM1820 120H1840V20H1820H1800V120H1820ZM1820 20V40H2120V20V0H1820V20ZM2120 20H2100V620H2120H2140V20H2120ZM2120 620V640H2320V620V600H2120V620ZM2320 620H2300V720H2320H2340V620H2320ZM2320 720V700H1720V720V740H2320V720ZM2520 720H2500V740H2520V720ZM2520 620H2540V600H2520V620ZM2420 620H2400V640H2420V620ZM2420 20V0H2400V20H2420ZM2620 20H2640V0H2620V20ZM2620 220H2600V240H2620V220ZM3020 220H3040V200H3020V220ZM3020 320H3000V340H3020V320ZM3120 320H3140V300H3120V320ZM3120 620V640H3140V620H3120ZM3020 620V600H3000V620H3020ZM3020 720V740H3040V720H3020ZM2620 620H2600V640H2620V620ZM2920 620V640H2940V620H2920ZM2920 320H2940V300H2920V320ZM2620 320V300H2600V320H2620ZM2520 720H2540V620H2520H2500V720H2520ZM2520 620V600H2420V620V640H2520V620ZM2420 620H2440V20H2420H2400V620H2420ZM2420 20V40H2620V20V0H2420V20ZM2620 20H2600V220H2620H2640V20H2620ZM2620 220V240H3020V220V200H2620V220ZM3020 220H3000V320H3020H3040V220H3020ZM3020 320V340H3120V320V300H3020V320ZM3120 320H3100V620H3120H3140V320H3120ZM3120 620V600H3020V620V640H3120V620ZM3020 620H3000V720H3020H3040V620H3020ZM3020 720V700H2520V720V740H3020V720ZM2620 620V640H2920V620V600H2620V620ZM2920 620H2940V320H2920H2900V620H2920ZM2920 320V300H2620V320V340H2920V320ZM2620 320H2600V620H2620H2640V320H2620ZM3320 720H3300V740H3320V720ZM3320 620H3340V600H3320V620ZM3220 620H3200V640H3220V620ZM3220 320V300H3200V320H3220ZM3320 320V340H3340V320H3320ZM3320 220V200H3300V220H3320ZM3820 220H3840V200H3820V220ZM3820 320H3800V340H3820V320ZM3920 320H3940V300H3920V320ZM3920 520V540H3940V520H3920ZM3420 520V500H3400V520H3420ZM3420 620H3400V640H3420V620ZM3820 620H3840V600H3820V620ZM3820 720V740H3840V720H3820ZM3420 420H3400V440H3420V420ZM3720 420V440H3740V420H3720ZM3720 320H3740V300H3720V320ZM3420 320V300H3400V320H3420ZM3320 720H3340V620H3320H3300V720H3320ZM3320 620V600H3220V620V640H3320V620ZM3220 620H3240V320H3220H3200V620H3220ZM3220 320V340H3320V320V300H3220V320ZM3320 320H3340V220H3320H3300V320H3320ZM3320 220V240H3820V220V200H3320V220ZM3820 220H3800V320H3820H3840V220H3820ZM3820 320V340H3920V320V300H3820V320ZM3920 320H3900V520H3920H3940V320H3920ZM3920 520V500H3420V520V540H3920V520ZM3420 520H3400V620H3420H3440V520H3420ZM3420 620V640H3820V620V600H3420V620ZM3820 620H3800V720H3820H3840V620H3820ZM3820 720V700H3320V720V740H3820V720ZM3420 420V440H3720V420V400H3420V420ZM3720 420H3740V320H3720H3700V420H3720ZM3720 320V300H3420V320V340H3720V320ZM3420 320H3400V420H3420H3440V320H3420ZM4320 320H4300V340H4320V320ZM4420 320H4440V300H4420V320ZM4420 420V440H4440V420H4420ZM4320 420V400H4300V420H4320ZM4320 720V740H4340V720H4320ZM4120 720H4100V740H4120V720ZM4120 220V200H4100V220H4120ZM4320 220H4340V200H4320V220ZM4720 220H4740V200H4720V220ZM4720 320V340H4740V320H4720ZM4420 320H4400V340H4420V320ZM4420 220V200H4400V220H4420ZM4320 320V340H4420V320V300H4320V320ZM4420 320H4400V420H4420H4440V320H4420ZM4420 420V400H4320V420V440H4420V420ZM4320 420H4300V720H4320H4340V420H4320ZM4320 720V700H4120V720V740H4320V720ZM4120 720H4140V220H4120H4100V720H4120ZM4120 220V240H4320V220V200H4120V220ZM4320 220H4300V320H4320H4340V220H4320ZM4720 220H4700V320H4720H4740V220H4720ZM4720 320V300H4420V320V340H4720V320ZM4420 320H4440V220H4420H4400V320H4420ZM4420 220V240H4720V220V200H4420V220ZM20 1520H0V1540H20V1520ZM20 820V800H0V820H20ZM720 820H740V800H720V820ZM720 920V940H740V920H720ZM220 920V900H200V920H220ZM220 1120H200V1140H220V1120ZM620 1120H640V1100H620V1120ZM620 1220V1240H640V1220H620ZM220 1220V1200H200V1220H220ZM220 1420H200V1440H220V1420ZM720 1420H740V1400H720V1420ZM720 1520V1540H740V1520H720ZM20 1520H40V820H20H0V1520H20ZM20 820V840H720V820V800H20V820ZM720 820H700V920H720H740V820H720ZM720 920V900H220V920V940H720V920ZM220 920H200V1120H220H240V920H220ZM220 1120V1140H620V1120V1100H220V1120ZM620 1120H600V1220H620H640V1120H620ZM620 1220V1200H220V1220V1240H620V1220ZM220 1220H200V1420H220H240V1220H220ZM220 1420V1440H720V1420V1400H220V1420ZM720 1420H700V1520H720H740V1420H720ZM720 1520V1500H20V1520V1540H720V1520ZM920 1520H900V1540H920V1520ZM920 1420V1400H900V1420H920ZM1120 1420V1440H1140V1420H1120ZM1120 920H1140V900H1120V920ZM1020 920H1000V940H1020V920ZM1020 820V800H1000V820H1020ZM1320 820H1340V800H1320V820ZM1320 1420H1300V1440H1320V1420ZM1520 1420H1540V1400H1520V1420ZM1520 1520V1540H1540V1520H1520ZM920 1520H940V1420H920H900V1520H920ZM920 1420V1440H1120V1420V1400H920V1420ZM1120 1420H1140V920H1120H1100V1420H1120ZM1120 920V900H1020V920V940H1120V920ZM1020 920H1040V820H1020H1000V920H1020ZM1020 820V840H1320V820V800H1020V820ZM1320 820H1300V1420H1320H1340V820H1320ZM1320 1420V1440H1520V1420V1400H1320V1420ZM1520 1420H1500V1520H1520H1540V1420H1520ZM1520 1520V1500H920V1520V1540H1520V1520ZM1720 1520H1700V1540H1720V1520ZM1720 1420H1740V1400H1720V1420ZM1620 1420H1600V1440H1620V1420ZM1620 1120V1100H1600V1120H1620ZM1720 1120V1140H1740V1120H1720ZM1720 1020V1000H1700V1020H1720ZM2220 1020H2240V1000H2220V1020ZM2220 1120H2200V1140H2220V1120ZM2320 1120H2340V1100H2320V1120ZM2320 1320V1340H2340V1320H2320ZM1820 1320V1300H1800V1320H1820ZM1820 1420H1800V1440H1820V1420ZM2220 1420H2240V1400H2220V1420ZM2220 1520V1540H2240V1520H2220ZM1820 1220H1800V1240H1820V1220ZM2120 1220V1240H2140V1220H2120ZM2120 1120H2140V1100H2120V1120ZM1820 1120V1100H1800V1120H1820ZM1720 1520H1740V1420H1720H1700V1520H1720ZM1720 1420V1400H1620V1420V1440H1720V1420ZM1620 1420H1640V1120H1620H1600V1420H1620ZM1620 1120V1140H1720V1120V1100H1620V1120ZM1720 1120H1740V1020H1720H1700V1120H1720ZM1720 1020V1040H2220V1020V1000H1720V1020ZM2220 1020H2200V1120H2220H2240V1020H2220ZM2220 1120V1140H2320V1120V1100H2220V1120ZM2320 1120H2300V1320H2320H2340V1120H2320ZM2320 1320V1300H1820V1320V1340H2320V1320ZM1820 1320H1800V1420H1820H1840V1320H1820ZM1820 1420V1440H2220V1420V1400H1820V1420ZM2220 1420H2200V1520H2220H2240V1420H2220ZM2220 1520V1500H1720V1520V1540H2220V1520ZM1820 1220V1240H2120V1220V1200H1820V1220ZM2120 1220H2140V1120H2120H2100V1220H2120ZM2120 1120V1100H1820V1120V1140H2120V1120ZM1820 1120H1800V1220H1820H1840V1120H1820ZM2520 1520H2500V1540H2520V1520ZM2520 1420H2540V1400H2520V1420ZM2420 1420H2400V1440H2420V1420ZM2420 1120V1100H2400V1120H2420ZM2520 1120V1140H2540V1120H2520ZM2520 1020V1000H2500V1020H2520ZM3120 1020H3140V1000H3120V1020ZM3120 1120V1140H3140V1120H3120ZM2620 1120V1100H2600V1120H2620ZM2620 1420H2600V1440H2620V1420ZM3120 1420H3140V1400H3120V1420ZM3120 1520V1540H3140V1520H3120ZM2520 1520H2540V1420H2520H2500V1520H2520ZM2520 1420V1400H2420V1420V1440H2520V1420ZM2420 1420H2440V1120H2420H2400V1420H2420ZM2420 1120V1140H2520V1120V1100H2420V1120ZM2520 1120H2540V1020H2520H2500V1120H2520ZM2520 1020V1040H3120V1020V1000H2520V1020ZM3120 1020H3100V1120H3120H3140V1020H3120ZM3120 1120V1100H2620V1120V1140H3120V1120ZM2620 1120H2600V1420H2620H2640V1120H2620ZM2620 1420V1440H3120V1420V1400H2620V1420ZM3120 1420H3100V1520H3120H3140V1420H3120ZM3120 1520V1500H2520V1520V1540H3120V1520ZM3520 1520H3500V1540H3520V1520ZM3520 1120H3540V1100H3520V1120ZM3320 1120H3300V1140H3320V1120ZM3320 1020V1000H3300V1020H3320ZM3520 1020V1040H3540V1020H3520ZM3520 820V800H3500V820H3520ZM3720 820H3740V800H3720V820ZM3720 1020H3700V1040H3720V1020ZM3920 1020H3940V1000H3920V1020ZM3920 1120V1140H3940V1120H3920ZM3720 1120V1100H3700V1120H3720ZM3720 1520V1540H3740V1520H3720ZM3520 1520H3540V1120H3520H3500V1520H3520ZM3520 1120V1100H3320V1120V1140H3520V1120ZM3320 1120H3340V1020H3320H3300V1120H3320ZM3320 1020V1040H3520V1020V1000H3320V1020ZM3520 1020H3540V820H3520H3500V1020H3520ZM3520 820V840H3720V820V800H3520V820ZM3720 820H3700V1020H3720H3740V820H3720ZM3720 1020V1040H3920V1020V1000H3720V1020ZM3920 1020H3900V1120H3920H3940V1020H3920ZM3920 1120V1100H3720V1120V1140H3920V1120ZM3720 1120H3700V1520H3720H3740V1120H3720ZM3720 1520V1500H3520V1520V1540H3720V1520ZM4320 1120H4300V1140H4320V1120ZM4420 1120H4440V1100H4420V1120ZM4420 1220V1240H4440V1220H4420ZM4320 1220V1200H4300V1220H4320ZM4320 1520V1540H4340V1520H4320ZM4120 1520H4100V1540H4120V1520ZM4120 1020V1000H4100V1020H4120ZM4320 1020H4340V1000H4320V1020ZM4720 1020H4740V1000H4720V1020ZM4720 1120V1140H4740V1120H4720ZM4420 1120H4400V1140H4420V1120ZM4420 1020V1000H4400V1020H4420ZM4320 1120V1140H4420V1120V1100H4320V1120ZM4420 1120H4400V1220H4420H4440V1120H4420ZM4420 1220V1200H4320V1220V1240H4420V1220ZM4320 1220H4300V1520H4320H4340V1220H4320ZM4320 1520V1500H4120V1520V1540H4320V1520ZM4120 1520H4140V1020H4120H4100V1520H4120ZM4120 1020V1040H4320V1020V1000H4120V1020ZM4320 1020H4300V1120H4320H4340V1020H4320ZM4720 1020H4700V1120H4720H4740V1020H4720ZM4720 1120V1100H4420V1120V1140H4720V1120ZM4420 1120H4440V1020H4420H4400V1120H4420ZM4420 1020V1040H4720V1020V1000H4420V1020ZM4920 1520H4900V1540H4920V1520ZM4920 1420H4940V1400H4920V1420ZM4820 1420H4800V1440H4820V1420ZM4820 1120V1100H4800V1120H4820ZM4920 1120V1140H4940V1120H4920ZM4920 1020V1000H4900V1020H4920ZM5420 1020H5440V1000H5420V1020ZM5420 1120H5400V1140H5420V1120ZM5520 1120H5540V1100H5520V1120ZM5520 1420V1440H5540V1420H5520ZM5420 1420V1400H5400V1420H5420ZM5420 1520V1540H5440V1520H5420ZM5020 1420H5000V1440H5020V1420ZM5320 1420V1440H5340V1420H5320ZM5320 1120H5340V1100H5320V1120ZM5020 1120V1100H5000V1120H5020ZM4920 1520H4940V1420H4920H4900V1520H4920ZM4920 1420V1400H4820V1420V1440H4920V1420ZM4820 1420H4840V1120H4820H4800V1420H4820ZM4820 1120V1140H4920V1120V1100H4820V1120ZM4920 1120H4940V1020H4920H4900V1120H4920ZM4920 1020V1040H5420V1020V1000H4920V1020ZM5420 1020H5400V1120H5420H5440V1020H5420ZM5420 1120V1140H5520V1120V1100H5420V1120ZM5520 1120H5500V1420H5520H5540V1120H5520ZM5520 1420V1400H5420V1420V1440H5520V1420ZM5420 1420H5400V1520H5420H5440V1420H5420ZM5420 1520V1500H4920V1520V1540H5420V1520ZM5020 1420V1440H5320V1420V1400H5020V1420ZM5320 1420H5340V1120H5320H5300V1420H5320ZM5320 1120V1100H5020V1120V1140H5320V1120ZM5020 1120H5000V1420H5020H5040V1120H5020ZM5620 1520H5600V1540H5620V1520ZM5620 1020V1000H5600V1020H5620ZM6220 1020H6240V1000H6220V1020ZM6220 1120H6200V1140H6220V1120ZM6320 1120H6340V1100H6320V1120ZM6320 1520V1540H6340V1520H6320ZM6120 1520H6100V1540H6120V1520ZM6120 1120H6140V1100H6120V1120ZM5820 1120V1100H5800V1120H5820ZM5820 1520V1540H5840V1520H5820ZM5620 1520H5640V1020H5620H5600V1520H5620ZM5620 1020V1040H6220V1020V1000H5620V1020ZM6220 1020H6200V1120H6220H6240V1020H6220ZM6220 1120V1140H6320V1120V1100H6220V1120ZM6320 1120H6300V1520H6320H6340V1120H6320ZM6320 1520V1500H6120V1520V1540H6320V1520ZM6120 1520H6140V1120H6120H6100V1520H6120ZM6120 1120V1100H5820V1120V1140H6120V1120ZM5820 1120H5800V1520H5820H5840V1120H5820ZM5820 1520V1500H5620V1520V1540H5820V1520ZM6720 920H6700V940H6720V920ZM6720 820V800H6700V820H6720ZM6920 820H6940V800H6920V820ZM6920 920V940H6940V920H6920ZM6520 1520H6500V1540H6520V1520ZM6520 1420V1400H6500V1420H6520ZM6720 1420V1440H6740V1420H6720ZM6720 1120H6740V1100H6720V1120ZM6620 1120H6600V1140H6620V1120ZM6620 1020V1000H6600V1020H6620ZM6920 1020H6940V1000H6920V1020ZM6920 1420H6900V1440H6920V1420ZM7120 1420H7140V1400H7120V1420ZM7120 1520V1540H7140V1520H7120ZM6720 920H6740V820H6720H6700V920H6720ZM6720 820V840H6920V820V800H6720V820ZM6920 820H6900V920H6920H6940V820H6920ZM6920 920V900H6720V920V940H6920V920ZM6520 1520H6540V1420H6520H6500V1520H6520ZM6520 1420V1440H6720V1420V1400H6520V1420ZM6720 1420H6740V1120H6720H6700V1420H6720ZM6720 1120V1100H6620V1120V1140H6720V1120ZM6620 1120H6640V1020H6620H6600V1120H6620ZM6620 1020V1040H6920V1020V1000H6620V1020ZM6920 1020H6900V1420H6920H6940V1020H6920ZM6920 1420V1440H7120V1420V1400H6920V1420ZM7120 1420H7100V1520H7120H7140V1420H7120ZM7120 1520V1500H6520V1520V1540H7120V1520ZM7320 1520H7300V1540H7320V1520ZM7320 1420H7340V1400H7320V1420ZM7220 1420H7200V1440H7220V1420ZM7220 1120V1100H7200V1120H7220ZM7320 1120V1140H7340V1120H7320ZM7320 1020V1000H7300V1020H7320ZM7920 1020H7940V1000H7920V1020ZM7920 1120V1140H7940V1120H7920ZM7420 1120V1100H7400V1120H7420ZM7420 1420H7400V1440H7420V1420ZM7920 1420H7940V1400H7920V1420ZM7920 1520V1540H7940V1520H7920ZM7320 1520H7340V1420H7320H7300V1520H7320ZM7320 1420V1400H7220V1420V1440H7320V1420ZM7220 1420H7240V1120H7220H7200V1420H7220ZM7220 1120V1140H7320V1120V1100H7220V1120ZM7320 1120H7340V1020H7320H7300V1120H7320ZM7320 1020V1040H7920V1020V1000H7320V1020ZM7920 1020H7900V1120H7920H7940V1020H7920ZM7920 1120V1100H7420V1120V1140H7920V1120ZM7420 1120H7400V1420H7420H7440V1120H7420ZM7420 1420V1440H7920V1420V1400H7420V1420ZM7920 1420H7900V1520H7920H7940V1420H7920ZM7920 1520V1500H7320V1520V1540H7920V1520ZM8020 1520H8000V1540H8020V1520ZM8020 1420V1400H8000V1420H8020ZM8520 1420V1440H8540V1420H8520ZM8520 1320H8540V1300H8520V1320ZM8120 1320H8100V1340H8120V1320ZM8120 1220H8140V1200H8120V1220ZM8020 1220H8000V1240H8020V1220ZM8020 1120V1100H8000V1120H8020ZM8120 1120V1140H8140V1120H8120ZM8120 1020V1000H8100V1020H8120ZM8620 1020H8640V1000H8620V1020ZM8620 1120V1140H8640V1120H8620ZM8220 1120V1100H8200V1120H8220ZM8220 1220H8200V1240H8220V1220ZM8620 1220H8640V1200H8620V1220ZM8620 1320H8600V1340H8620V1320ZM8720 1320H8740V1300H8720V1320ZM8720 1420V1440H8740V1420H8720ZM8620 1420V1400H8600V1420H8620ZM8620 1520V1540H8640V1520H8620ZM8020 1520H8040V1420H8020H8000V1520H8020ZM8020 1420V1440H8520V1420V1400H8020V1420ZM8520 1420H8540V1320H8520H8500V1420H8520ZM8520 1320V1300H8120V1320V1340H8520V1320ZM8120 1320H8140V1220H8120H8100V1320H8120ZM8120 1220V1200H8020V1220V1240H8120V1220ZM8020 1220H8040V1120H8020H8000V1220H8020ZM8020 1120V1140H8120V1120V1100H8020V1120ZM8120 1120H8140V1020H8120H8100V1120H8120ZM8120 1020V1040H8620V1020V1000H8120V1020ZM8620 1020H8600V1120H8620H8640V1020H8620ZM8620 1120V1100H8220V1120V1140H8620V1120ZM8220 1120H8200V1220H8220H8240V1120H8220ZM8220 1220V1240H8620V1220V1200H8220V1220ZM8620 1220H8600V1320H8620H8640V1220H8620ZM8620 1320V1340H8720V1320V1300H8620V1320ZM8720 1320H8700V1420H8720H8740V1320H8720ZM8720 1420V1400H8620V1420V1440H8720V1420ZM8620 1420H8600V1520H8620H8640V1420H8620ZM8620 1520V1500H8020V1520V1540H8620V1520Z" fill="black" mask="url(#path-1-outside-1_1012_387)"/>
</svg>
